<svg xmlns="http://www.w3.org/2000/svg" xmlns:xlink="http://www.w3.org/1999/xlink" width="500" zoomAndPan="magnify" viewBox="0 0 375 374.999991" height="500" preserveAspectRatio="xMidYMid meet" version="1.0"><defs><g><g id="id1"/><g id="id2"/></g></defs><path fill="rgb(76.469421%, 97.24884%, 83.139038%)" d="M 170.746094 286.914062 L 68.964844 286.914062 C 64.769531 286.914062 61.355469 283.496094 61.355469 279.304688 L 61.355469 177.523438 C 61.355469 173.328125 64.769531 169.914062 68.964844 169.914062 L 170.746094 169.914062 C 174.9375 169.914062 178.355469 173.328125 178.355469 177.523438 L 178.355469 279.304688 C 178.355469 283.496094 174.9375 286.914062 170.746094 286.914062 " fill-opacity="1" fill-rule="nonzero"/><g fill="rgb(67.449951%, 58.039856%, 86.268616%)" fill-opacity="1"><g transform="translate(74.976267, 245.320897)"><g><path d="M 20.625 -14.78125 C 20.625 -12.46875 20.335938 -10.378906 19.765625 -8.515625 C 19.203125 -6.648438 18.347656 -5.046875 17.203125 -3.703125 C 16.054688 -2.367188 14.617188 -1.34375 12.890625 -0.625 C 11.171875 0.09375 9.164062 0.453125 6.875 0.453125 C 5.832031 0.453125 4.800781 0.390625 3.78125 0.265625 C 2.769531 0.140625 1.707031 -0.0507812 0.59375 -0.3125 C 0.664062 -1.144531 0.738281 -1.976562 0.8125 -2.8125 C 0.894531 -3.644531 0.972656 -4.476562 1.046875 -5.3125 C 1.109375 -5.769531 1.289062 -6.132812 1.59375 -6.40625 C 1.894531 -6.675781 2.328125 -6.8125 2.890625 -6.8125 C 3.210938 -6.8125 3.625 -6.753906 4.125 -6.640625 C 4.632812 -6.535156 5.257812 -6.484375 6 -6.484375 C 7.019531 -6.484375 7.90625 -6.625 8.65625 -6.90625 C 9.414062 -7.1875 10.050781 -7.648438 10.5625 -8.296875 C 11.082031 -8.941406 11.46875 -9.78125 11.71875 -10.8125 C 11.976562 -11.84375 12.109375 -13.097656 12.109375 -14.578125 L 12.109375 -41.234375 L 20.625 -41.234375 Z M 20.625 -14.78125 "/></g></g></g><g fill="rgb(67.449951%, 58.039856%, 86.268616%)" fill-opacity="1"><g transform="translate(99.524323, 245.320897)"><g><path d="M 16.453125 -29.75 C 18.648438 -29.75 20.644531 -29.394531 22.4375 -28.6875 C 24.238281 -27.988281 25.785156 -26.988281 27.078125 -25.6875 C 28.367188 -24.394531 29.363281 -22.820312 30.0625 -20.96875 C 30.757812 -19.113281 31.109375 -17.019531 31.109375 -14.6875 C 31.109375 -12.351562 30.757812 -10.253906 30.0625 -8.390625 C 29.363281 -6.523438 28.367188 -4.9375 27.078125 -3.625 C 25.785156 -2.320312 24.238281 -1.320312 22.4375 -0.625 C 20.644531 0.0703125 18.648438 0.421875 16.453125 0.421875 C 14.234375 0.421875 12.21875 0.0703125 10.40625 -0.625 C 8.601562 -1.320312 7.054688 -2.320312 5.765625 -3.625 C 4.472656 -4.9375 3.472656 -6.523438 2.765625 -8.390625 C 2.054688 -10.253906 1.703125 -12.351562 1.703125 -14.6875 C 1.703125 -17.019531 2.054688 -19.113281 2.765625 -20.96875 C 3.472656 -22.820312 4.472656 -24.394531 5.765625 -25.6875 C 7.054688 -26.988281 8.601562 -27.988281 10.40625 -28.6875 C 12.21875 -29.394531 14.234375 -29.75 16.453125 -29.75 Z M 16.453125 -5.453125 C 18.679688 -5.453125 20.335938 -6.222656 21.421875 -7.765625 C 22.503906 -9.316406 23.046875 -11.613281 23.046875 -14.65625 C 23.046875 -17.6875 22.503906 -19.972656 21.421875 -21.515625 C 20.335938 -23.066406 18.679688 -23.84375 16.453125 -23.84375 C 14.160156 -23.84375 12.472656 -23.066406 11.390625 -21.515625 C 10.316406 -19.972656 9.78125 -17.6875 9.78125 -14.65625 C 9.78125 -11.613281 10.316406 -9.316406 11.390625 -7.765625 C 12.472656 -6.222656 14.160156 -5.453125 16.453125 -5.453125 Z M 16.453125 -5.453125 "/></g></g></g><g fill="rgb(67.449951%, 58.039856%, 86.268616%)" fill-opacity="1"><g transform="translate(132.3403, 245.320897)"><g><path d="M 11.078125 -7.734375 C 11.816406 -6.878906 12.617188 -6.28125 13.484375 -5.9375 C 14.347656 -5.59375 15.242188 -5.421875 16.171875 -5.421875 C 17.128906 -5.421875 18 -5.597656 18.78125 -5.953125 C 19.570312 -6.304688 20.253906 -6.863281 20.828125 -7.625 C 21.398438 -8.394531 21.835938 -9.394531 22.140625 -10.625 C 22.441406 -11.851562 22.59375 -13.34375 22.59375 -15.09375 C 22.59375 -16.644531 22.46875 -17.960938 22.21875 -19.046875 C 21.96875 -20.140625 21.601562 -21.035156 21.125 -21.734375 C 20.644531 -22.429688 20.050781 -22.941406 19.34375 -23.265625 C 18.644531 -23.585938 17.832031 -23.75 16.90625 -23.75 C 15.675781 -23.75 14.609375 -23.476562 13.703125 -22.9375 C 12.804688 -22.40625 11.929688 -21.617188 11.078125 -20.578125 Z M 11.078125 -25.90625 C 12.234375 -27.0625 13.507812 -27.988281 14.90625 -28.6875 C 16.3125 -29.394531 17.890625 -29.75 19.640625 -29.75 C 21.316406 -29.75 22.832031 -29.410156 24.1875 -28.734375 C 25.539062 -28.066406 26.695312 -27.109375 27.65625 -25.859375 C 28.613281 -24.609375 29.351562 -23.097656 29.875 -21.328125 C 30.394531 -19.554688 30.65625 -17.570312 30.65625 -15.375 C 30.65625 -13 30.359375 -10.84375 29.765625 -8.90625 C 29.171875 -6.96875 28.320312 -5.304688 27.21875 -3.921875 C 26.125 -2.535156 24.8125 -1.460938 23.28125 -0.703125 C 21.757812 0.046875 20.0625 0.421875 18.1875 0.421875 C 17.28125 0.421875 16.460938 0.332031 15.734375 0.15625 C 15.015625 -0.0195312 14.351562 -0.269531 13.75 -0.59375 C 13.144531 -0.914062 12.585938 -1.300781 12.078125 -1.75 C 11.566406 -2.195312 11.082031 -2.691406 10.625 -3.234375 L 10.3125 -1.484375 C 10.175781 -0.929688 9.957031 -0.546875 9.65625 -0.328125 C 9.351562 -0.109375 8.945312 0 8.4375 0 L 3.234375 0 L 3.234375 -42.359375 L 11.078125 -42.359375 Z M 11.078125 -25.90625 "/></g></g></g><g fill="rgb(67.449951%, 58.039856%, 86.268616%)" fill-opacity="1"><g transform="translate(190.065826, 243.197458)"><g><path d="M 11.296875 -4.015625 C 12.003906 -4.015625 12.578125 -4.101562 13.015625 -4.28125 C 13.460938 -4.457031 13.8125 -4.6875 14.0625 -4.96875 C 14.320312 -5.257812 14.5 -5.582031 14.59375 -5.9375 C 14.6875 -6.289062 14.734375 -6.65625 14.734375 -7.03125 C 14.734375 -7.445312 14.675781 -7.820312 14.5625 -8.15625 C 14.457031 -8.5 14.269531 -8.785156 14 -9.015625 C 13.726562 -9.242188 13.375 -9.421875 12.9375 -9.546875 C 12.5 -9.671875 11.941406 -9.734375 11.265625 -9.734375 L 7.546875 -9.734375 L 7.546875 -4.015625 Z M 7.546875 -18.96875 L 7.546875 -13.296875 L 10.328125 -13.296875 C 10.910156 -13.296875 11.4375 -13.335938 11.90625 -13.421875 C 12.382812 -13.503906 12.785156 -13.648438 13.109375 -13.859375 C 13.441406 -14.078125 13.695312 -14.367188 13.875 -14.734375 C 14.050781 -15.097656 14.140625 -15.5625 14.140625 -16.125 C 14.140625 -16.664062 14.066406 -17.117188 13.921875 -17.484375 C 13.785156 -17.847656 13.578125 -18.140625 13.296875 -18.359375 C 13.015625 -18.578125 12.65625 -18.734375 12.21875 -18.828125 C 11.78125 -18.921875 11.265625 -18.96875 10.671875 -18.96875 Z M 10.671875 -22.953125 C 12.253906 -22.953125 13.601562 -22.804688 14.71875 -22.515625 C 15.832031 -22.222656 16.738281 -21.804688 17.4375 -21.265625 C 18.144531 -20.734375 18.65625 -20.082031 18.96875 -19.3125 C 19.289062 -18.550781 19.453125 -17.695312 19.453125 -16.75 C 19.453125 -16.238281 19.378906 -15.742188 19.234375 -15.265625 C 19.085938 -14.785156 18.859375 -14.335938 18.546875 -13.921875 C 18.234375 -13.503906 17.828125 -13.125 17.328125 -12.78125 C 16.835938 -12.4375 16.242188 -12.132812 15.546875 -11.875 C 17.066406 -11.507812 18.1875 -10.914062 18.90625 -10.09375 C 19.632812 -9.28125 20 -8.222656 20 -6.921875 C 20 -5.941406 19.804688 -5.03125 19.421875 -4.1875 C 19.046875 -3.351562 18.492188 -2.625 17.765625 -2 C 17.035156 -1.375 16.132812 -0.882812 15.0625 -0.53125 C 13.988281 -0.175781 12.765625 0 11.390625 0 L 2.21875 0 L 2.21875 -22.953125 Z M 10.671875 -22.953125 "/></g></g></g><g fill="rgb(67.449951%, 58.039856%, 86.268616%)" fill-opacity="1"><g transform="translate(212.518469, 243.197458)"><g><path d="M 9.1875 -16.59375 C 10.425781 -16.59375 11.554688 -16.394531 12.578125 -16 C 13.597656 -15.613281 14.472656 -15.054688 15.203125 -14.328125 C 15.929688 -13.609375 16.492188 -12.726562 16.890625 -11.6875 C 17.296875 -10.65625 17.5 -9.492188 17.5 -8.203125 C 17.5 -6.898438 17.296875 -5.726562 16.890625 -4.6875 C 16.492188 -3.644531 15.929688 -2.757812 15.203125 -2.03125 C 14.472656 -1.300781 13.597656 -0.738281 12.578125 -0.34375 C 11.554688 0.0507812 10.425781 0.25 9.1875 0.25 C 7.9375 0.25 6.796875 0.0507812 5.765625 -0.34375 C 4.742188 -0.738281 3.863281 -1.300781 3.125 -2.03125 C 2.382812 -2.757812 1.8125 -3.644531 1.40625 -4.6875 C 1 -5.726562 0.796875 -6.898438 0.796875 -8.203125 C 0.796875 -9.492188 1 -10.65625 1.40625 -11.6875 C 1.8125 -12.726562 2.382812 -13.609375 3.125 -14.328125 C 3.863281 -15.054688 4.742188 -15.613281 5.765625 -16 C 6.796875 -16.394531 7.9375 -16.59375 9.1875 -16.59375 Z M 9.1875 -3.375 C 10.3125 -3.375 11.140625 -3.769531 11.671875 -4.5625 C 12.203125 -5.351562 12.46875 -6.554688 12.46875 -8.171875 C 12.46875 -9.796875 12.203125 -11 11.671875 -11.78125 C 11.140625 -12.570312 10.3125 -12.96875 9.1875 -12.96875 C 8.03125 -12.96875 7.179688 -12.570312 6.640625 -11.78125 C 6.109375 -11 5.84375 -9.796875 5.84375 -8.171875 C 5.84375 -6.554688 6.109375 -5.351562 6.640625 -4.5625 C 7.179688 -3.769531 8.03125 -3.375 9.1875 -3.375 Z M 9.1875 -3.375 "/></g></g></g><g fill="rgb(67.449951%, 58.039856%, 86.268616%)" fill-opacity="1"><g transform="translate(232.182336, 243.197458)"><g><path d="M 10.078125 -6.65625 C 9.109375 -6.613281 8.304688 -6.523438 7.671875 -6.390625 C 7.046875 -6.265625 6.546875 -6.109375 6.171875 -5.921875 C 5.804688 -5.734375 5.550781 -5.519531 5.40625 -5.28125 C 5.269531 -5.039062 5.203125 -4.773438 5.203125 -4.484375 C 5.203125 -3.929688 5.351562 -3.539062 5.65625 -3.3125 C 5.957031 -3.09375 6.40625 -2.984375 7 -2.984375 C 7.625 -2.984375 8.171875 -3.09375 8.640625 -3.3125 C 9.117188 -3.53125 9.597656 -3.882812 10.078125 -4.375 Z M 1.296875 -14.078125 C 2.273438 -14.941406 3.363281 -15.585938 4.5625 -16.015625 C 5.769531 -16.441406 7.066406 -16.65625 8.453125 -16.65625 C 9.429688 -16.65625 10.316406 -16.492188 11.109375 -16.171875 C 11.910156 -15.847656 12.585938 -15.398438 13.140625 -14.828125 C 13.691406 -14.265625 14.113281 -13.585938 14.40625 -12.796875 C 14.695312 -12.003906 14.84375 -11.144531 14.84375 -10.21875 L 14.84375 0 L 12.609375 0 C 12.140625 0 11.785156 -0.0625 11.546875 -0.1875 C 11.316406 -0.3125 11.125 -0.578125 10.96875 -0.984375 L 10.625 -1.875 C 10.207031 -1.53125 9.8125 -1.222656 9.4375 -0.953125 C 9.0625 -0.691406 8.671875 -0.46875 8.265625 -0.28125 C 7.859375 -0.101562 7.425781 0.0234375 6.96875 0.109375 C 6.507812 0.203125 6.003906 0.25 5.453125 0.25 C 4.703125 0.25 4.019531 0.15625 3.40625 -0.03125 C 2.800781 -0.226562 2.285156 -0.515625 1.859375 -0.890625 C 1.441406 -1.273438 1.113281 -1.75 0.875 -2.3125 C 0.644531 -2.875 0.53125 -3.519531 0.53125 -4.25 C 0.53125 -4.84375 0.675781 -5.441406 0.96875 -6.046875 C 1.269531 -6.648438 1.78125 -7.203125 2.5 -7.703125 C 3.226562 -8.203125 4.207031 -8.617188 5.4375 -8.953125 C 6.664062 -9.285156 8.210938 -9.472656 10.078125 -9.515625 L 10.078125 -10.21875 C 10.078125 -11.164062 9.878906 -11.851562 9.484375 -12.28125 C 9.097656 -12.707031 8.539062 -12.921875 7.8125 -12.921875 C 7.238281 -12.921875 6.765625 -12.859375 6.390625 -12.734375 C 6.023438 -12.609375 5.695312 -12.46875 5.40625 -12.3125 C 5.125 -12.15625 4.84375 -12.007812 4.5625 -11.875 C 4.289062 -11.75 3.96875 -11.6875 3.59375 -11.6875 C 3.257812 -11.6875 2.972656 -11.769531 2.734375 -11.9375 C 2.503906 -12.113281 2.316406 -12.316406 2.171875 -12.546875 Z M 1.296875 -14.078125 "/></g></g></g><g fill="rgb(67.449951%, 58.039856%, 86.268616%)" fill-opacity="1"><g transform="translate(249.845203, 243.197458)"><g><path d="M 6.21875 -13.8125 C 6.726562 -14.695312 7.3125 -15.390625 7.96875 -15.890625 C 8.625 -16.398438 9.378906 -16.65625 10.234375 -16.65625 C 10.960938 -16.65625 11.554688 -16.484375 12.015625 -16.140625 L 11.703125 -12.546875 C 11.648438 -12.316406 11.5625 -12.15625 11.4375 -12.0625 C 11.320312 -11.976562 11.160156 -11.9375 10.953125 -11.9375 C 10.867188 -11.9375 10.757812 -11.941406 10.625 -11.953125 C 10.488281 -11.960938 10.34375 -11.972656 10.1875 -11.984375 C 10.039062 -12.003906 9.890625 -12.023438 9.734375 -12.046875 C 9.585938 -12.066406 9.453125 -12.078125 9.328125 -12.078125 C 8.609375 -12.078125 8.035156 -11.882812 7.609375 -11.5 C 7.191406 -11.125 6.835938 -10.597656 6.546875 -9.921875 L 6.546875 0 L 1.65625 0 L 1.65625 -16.34375 L 4.546875 -16.34375 C 4.796875 -16.34375 5 -16.320312 5.15625 -16.28125 C 5.320312 -16.238281 5.457031 -16.171875 5.5625 -16.078125 C 5.675781 -15.992188 5.757812 -15.875 5.8125 -15.71875 C 5.875 -15.570312 5.925781 -15.394531 5.96875 -15.1875 Z M 6.21875 -13.8125 "/></g></g></g><g fill="rgb(67.449951%, 58.039856%, 86.268616%)" fill-opacity="1"><g transform="translate(263.222487, 243.197458)"><g><path d="M 11.5625 -11.953125 C 11.195312 -12.367188 10.796875 -12.65625 10.359375 -12.8125 C 9.929688 -12.976562 9.484375 -13.0625 9.015625 -13.0625 C 8.554688 -13.0625 8.140625 -12.972656 7.765625 -12.796875 C 7.390625 -12.617188 7.0625 -12.332031 6.78125 -11.9375 C 6.5 -11.539062 6.28125 -11.023438 6.125 -10.390625 C 5.96875 -9.765625 5.890625 -9.003906 5.890625 -8.109375 C 5.890625 -7.253906 5.953125 -6.53125 6.078125 -5.9375 C 6.203125 -5.351562 6.378906 -4.878906 6.609375 -4.515625 C 6.835938 -4.148438 7.109375 -3.890625 7.421875 -3.734375 C 7.734375 -3.578125 8.085938 -3.5 8.484375 -3.5 C 8.835938 -3.5 9.15625 -3.53125 9.4375 -3.59375 C 9.726562 -3.664062 9.992188 -3.765625 10.234375 -3.890625 C 10.484375 -4.015625 10.710938 -4.175781 10.921875 -4.375 C 11.140625 -4.570312 11.351562 -4.796875 11.5625 -5.046875 Z M 16.453125 -23.59375 L 16.453125 0 L 13.421875 0 C 12.816406 0 12.421875 -0.269531 12.234375 -0.8125 L 11.84375 -2.0625 C 11.519531 -1.71875 11.179688 -1.398438 10.828125 -1.109375 C 10.472656 -0.828125 10.085938 -0.582031 9.671875 -0.375 C 9.253906 -0.175781 8.804688 -0.0234375 8.328125 0.078125 C 7.847656 0.191406 7.332031 0.25 6.78125 0.25 C 5.925781 0.25 5.132812 0.0625 4.40625 -0.3125 C 3.6875 -0.6875 3.0625 -1.234375 2.53125 -1.953125 C 2.007812 -2.671875 1.597656 -3.546875 1.296875 -4.578125 C 0.992188 -5.609375 0.84375 -6.785156 0.84375 -8.109375 C 0.84375 -9.328125 1.007812 -10.457031 1.34375 -11.5 C 1.6875 -12.550781 2.164062 -13.457031 2.78125 -14.21875 C 3.394531 -14.976562 4.128906 -15.570312 4.984375 -16 C 5.847656 -16.4375 6.800781 -16.65625 7.84375 -16.65625 C 8.695312 -16.65625 9.410156 -16.535156 9.984375 -16.296875 C 10.566406 -16.054688 11.09375 -15.726562 11.5625 -15.3125 L 11.5625 -23.59375 Z M 16.453125 -23.59375 "/></g></g></g></svg>